<svg xmlns="http://www.w3.org/2000/svg" xmlns:xlink="http://www.w3.org/1999/xlink" width="40" zoomAndPan="magnify" viewBox="0 0 30 30.000001" height="40" preserveAspectRatio="xMidYMid meet" version="1.0"><defs><clipPath id="290b5ce217"><path d="M 1.933594 1.453125 L 28.066406 1.453125 L 28.066406 27.582031 L 1.933594 27.582031 Z M 1.933594 1.453125 " clip-rule="nonzero"/></clipPath><clipPath id="096c7eefd4"><path d="M 15 1.453125 C 7.785156 1.453125 1.933594 7.300781 1.933594 14.515625 C 1.933594 21.730469 7.785156 27.582031 15 27.582031 C 22.214844 27.582031 28.066406 21.730469 28.066406 14.515625 C 28.066406 7.300781 22.214844 1.453125 15 1.453125 Z M 15 1.453125 " clip-rule="nonzero"/></clipPath><clipPath id="0451173660"><path d="M 0.933594 0.453125 L 27.066406 0.453125 L 27.066406 26.582031 L 0.933594 26.582031 Z M 0.933594 0.453125 " clip-rule="nonzero"/></clipPath><clipPath id="ef61e49750"><path d="M 14 0.453125 C 6.785156 0.453125 0.933594 6.300781 0.933594 13.515625 C 0.933594 20.730469 6.785156 26.582031 14 26.582031 C 21.214844 26.582031 27.066406 20.730469 27.066406 13.515625 C 27.066406 6.300781 21.214844 0.453125 14 0.453125 Z M 14 0.453125 " clip-rule="nonzero"/></clipPath><clipPath id="ee0e1e29a9"><rect x="0" width="28" y="0" height="27"/></clipPath><clipPath id="48a35e302c"><path d="M 15 8 L 21.40625 8 L 21.40625 21.589844 L 15 21.589844 Z M 15 8 " clip-rule="nonzero"/></clipPath><clipPath id="c8b788e1fd"><path d="M 8.339844 7.796875 L 17 7.796875 L 17 21 L 8.339844 21 Z M 8.339844 7.796875 " clip-rule="nonzero"/></clipPath></defs><g clip-path="url(#290b5ce217)"><g clip-path="url(#096c7eefd4)"><g transform="matrix(1, 0, 0, 1, 1, 1)"><g clip-path="url(#ee0e1e29a9)"><g clip-path="url(#0451173660)"><g clip-path="url(#ef61e49750)"><path fill="#d64550" d="M 0.933594 0.453125 L 27.066406 0.453125 L 27.066406 26.582031 L 0.933594 26.582031 Z M 0.933594 0.453125 " fill-opacity="1" fill-rule="nonzero"/></g></g></g></g></g></g><g clip-path="url(#48a35e302c)"><path fill="#ffffff" d="M 17.808594 8.390625 C 17.542969 8.265625 17.222656 8.453125 17.210938 8.75 C 17.210938 8.753906 17.210938 8.757812 17.210938 8.757812 C 17.15625 10.003906 16.792969 11.167969 16.199219 12.265625 C 15.617188 13.363281 15.191406 14.503906 15.292969 15.78125 C 15.398438 17.003906 15.941406 17.929688 17.203125 18.445312 C 16.902344 19.105469 16.789062 20.21875 17.914062 21.148438 C 17.976562 21.199219 18.050781 21.226562 18.128906 21.226562 C 18.226562 21.226562 18.320312 21.183594 18.386719 21.105469 C 18.503906 20.960938 18.484375 20.75 18.34375 20.632812 C 17.332031 19.796875 17.710938 18.894531 17.871094 18.609375 C 17.957031 18.625 18.027344 18.636719 18.0625 18.636719 C 19.632812 18.71875 20.730469 17.761719 21.253906 16.601562 C 21.257812 16.59375 21.261719 16.589844 21.265625 16.585938 C 21.519531 15.890625 21.65625 15.136719 21.65625 14.351562 C 21.652344 11.707031 20.074219 9.421875 17.808594 8.390625 Z M 20.339844 14.769531 L 18.871094 15.988281 C 18.730469 16.578125 18.511719 17.164062 18.171875 17.710938 C 18.121094 17.789062 18.039062 17.832031 17.949219 17.832031 C 17.902344 17.832031 17.851562 17.820312 17.8125 17.796875 C 17.6875 17.71875 17.652344 17.558594 17.730469 17.433594 C 18.019531 16.976562 18.207031 16.476562 18.335938 15.96875 L 16.816406 15.039062 C 16.691406 14.964844 16.65625 14.804688 16.730469 14.679688 C 16.808594 14.554688 16.964844 14.519531 17.089844 14.597656 L 18.445312 15.425781 C 18.535156 14.859375 18.554688 14.285156 18.527344 13.742188 L 17.339844 12.992188 C 17.214844 12.917969 17.179688 12.757812 17.257812 12.632812 C 17.335938 12.511719 17.5 12.476562 17.617188 12.550781 L 18.480469 13.085938 C 18.300781 11.566406 17.832031 10.386719 17.828125 10.363281 C 17.773438 10.234375 17.839844 10.078125 17.972656 10.023438 C 18.101562 9.96875 18.257812 10.035156 18.3125 10.167969 C 18.347656 10.25 18.683594 11.109375 18.902344 12.3125 L 19.261719 11.578125 C 19.324219 11.449219 19.480469 11.394531 19.609375 11.457031 C 19.734375 11.519531 19.789062 11.675781 19.726562 11.804688 L 19.03125 13.242188 C 19.089844 13.859375 19.105469 14.523438 19.023438 15.195312 L 20.019531 14.367188 C 20.128906 14.277344 20.292969 14.289062 20.386719 14.402344 C 20.464844 14.515625 20.453125 14.679688 20.339844 14.769531 Z M 20.339844 14.769531 " fill-opacity="1" fill-rule="nonzero"/></g><g clip-path="url(#c8b788e1fd)"><path fill="#ffffff" d="M 16.074219 18.832031 C 15.027344 18.199219 14.4375 17.195312 14.320312 15.84375 C 14.195312 14.332031 14.726562 13.035156 15.234375 12.050781 C 15.035156 11.898438 14.832031 11.761719 14.671875 11.652344 C 13.667969 10.953125 14.140625 9.769531 14.40625 9.269531 C 14.5625 9.253906 14.722656 9.246094 14.886719 9.246094 C 15.332031 9.246094 15.757812 9.304688 16.167969 9.410156 C 16.199219 9.1875 16.226562 8.960938 16.234375 8.738281 L 16.234375 8.714844 C 16.246094 8.449219 16.351562 8.199219 16.523438 8.003906 C 16 7.867188 15.453125 7.796875 14.886719 7.796875 C 11.277344 7.792969 8.339844 10.734375 8.339844 14.339844 C 8.339844 17.949219 11.277344 20.886719 14.886719 20.886719 C 15.398438 20.886719 15.890625 20.828125 16.367188 20.714844 C 16.027344 20.082031 15.964844 19.417969 16.074219 18.832031 Z M 13.164062 17.074219 C 13.125 17.546875 13.027344 17.863281 12.730469 18.183594 C 12.570312 18.351562 12.410156 18.523438 12.253906 18.695312 C 10.78125 17.800781 9.796875 16.179688 9.796875 14.335938 C 9.796875 13.476562 10.011719 12.664062 10.390625 11.949219 C 10.542969 12.316406 10.710938 12.722656 10.710938 12.722656 C 10.84375 13.035156 11.179688 13.234375 11.445312 13.417969 C 11.855469 13.695312 12.410156 13.554688 12.804688 13.835938 C 13.101562 14.203125 13.25 14.671875 13.246094 15.140625 C 13.238281 15.792969 13.214844 16.433594 13.164062 17.074219 Z M 13.164062 17.074219 " fill-opacity="1" fill-rule="nonzero"/></g><path fill="#ffffff" d="M 14.988281 14.503906 L 15 14.511719 C 15 14.507812 14.992188 14.507812 14.988281 14.503906 Z M 14.988281 14.503906 " fill-opacity="1" fill-rule="nonzero"/></svg>