<svg xmlns="http://www.w3.org/2000/svg" xmlns:xlink="http://www.w3.org/1999/xlink" width="40" zoomAndPan="magnify" viewBox="0 0 30 30.000001" height="40" preserveAspectRatio="xMidYMid meet" version="1.0"><defs><clipPath id="6ccf2e6080"><path d="M 1.933594 1.453125 L 28.066406 1.453125 L 28.066406 27.582031 L 1.933594 27.582031 Z M 1.933594 1.453125 " clip-rule="nonzero"/></clipPath><clipPath id="728de42d98"><path d="M 15 1.453125 C 7.785156 1.453125 1.933594 7.300781 1.933594 14.515625 C 1.933594 21.730469 7.785156 27.582031 15 27.582031 C 22.214844 27.582031 28.066406 21.730469 28.066406 14.515625 C 28.066406 7.300781 22.214844 1.453125 15 1.453125 Z M 15 1.453125 " clip-rule="nonzero"/></clipPath><clipPath id="d953872872"><path d="M 0.933594 0.453125 L 27.066406 0.453125 L 27.066406 26.582031 L 0.933594 26.582031 Z M 0.933594 0.453125 " clip-rule="nonzero"/></clipPath><clipPath id="2571f59650"><path d="M 14 0.453125 C 6.785156 0.453125 0.933594 6.300781 0.933594 13.515625 C 0.933594 20.730469 6.785156 26.582031 14 26.582031 C 21.214844 26.582031 27.066406 20.730469 27.066406 13.515625 C 27.066406 6.300781 21.214844 0.453125 14 0.453125 Z M 14 0.453125 " clip-rule="nonzero"/></clipPath><clipPath id="949408f230"><rect x="0" width="28" y="0" height="27"/></clipPath><clipPath id="aafdf661d5"><path d="M 8 5.496094 L 22 5.496094 L 22 22.191406 L 8 22.191406 Z M 8 5.496094 " clip-rule="nonzero"/></clipPath></defs><g clip-path="url(#6ccf2e6080)"><g clip-path="url(#728de42d98)"><g transform="matrix(1, 0, 0, 1, 1, 1)"><g clip-path="url(#949408f230)"><g clip-path="url(#d953872872)"><g clip-path="url(#2571f59650)"><path fill="#e24a4a" d="M 0.933594 0.453125 L 27.066406 0.453125 L 27.066406 26.582031 L 0.933594 26.582031 Z M 0.933594 0.453125 " fill-opacity="1" fill-rule="nonzero"/></g></g></g></g></g></g><g clip-path="url(#aafdf661d5)"><path fill="#ffffff" d="M 14.6875 5.496094 C 15.003906 8.921875 13.667969 11.679688 10.699219 13.785156 C 7.15625 16.242188 9.296875 21.976562 13.203125 22.078125 C 11.378906 20.140625 11.210938 18.046875 12.445312 15.8125 L 13.269531 17.199219 C 13.355469 15.089844 14.246094 13.46875 16.136719 12.453125 C 15.863281 13.816406 16.085938 14.925781 16.777344 15.792969 C 17.171875 16.292969 17.488281 16.851562 17.691406 17.457031 C 18.273438 19.183594 18.097656 20.746094 16.863281 22.078125 C 20.71875 21.613281 22.84375 16.6875 19.664062 11.660156 C 19.273438 12.570312 18.742188 13.160156 18.015625 13.308594 C 18.382812 10.082031 17.382812 7.429688 14.6875 5.496094 Z M 14.6875 5.496094 " fill-opacity="1" fill-rule="nonzero"/></g></svg>