<svg xmlns="http://www.w3.org/2000/svg" xmlns:xlink="http://www.w3.org/1999/xlink" width="40" zoomAndPan="magnify" viewBox="0 0 30 30.000001" height="40" preserveAspectRatio="xMidYMid meet" version="1.0"><defs><clipPath id="3a477b9c1f"><path d="M 1.933594 1.453125 L 28.066406 1.453125 L 28.066406 27.582031 L 1.933594 27.582031 Z M 1.933594 1.453125 " clip-rule="nonzero"/></clipPath><clipPath id="d5ac069e1f"><path d="M 15 1.453125 C 7.785156 1.453125 1.933594 7.300781 1.933594 14.515625 C 1.933594 21.730469 7.785156 27.582031 15 27.582031 C 22.214844 27.582031 28.066406 21.730469 28.066406 14.515625 C 28.066406 7.300781 22.214844 1.453125 15 1.453125 Z M 15 1.453125 " clip-rule="nonzero"/></clipPath><clipPath id="77f725821b"><path d="M 0.933594 0.453125 L 27.066406 0.453125 L 27.066406 26.582031 L 0.933594 26.582031 Z M 0.933594 0.453125 " clip-rule="nonzero"/></clipPath><clipPath id="cf4c0cabbb"><path d="M 14 0.453125 C 6.785156 0.453125 0.933594 6.300781 0.933594 13.515625 C 0.933594 20.730469 6.785156 26.582031 14 26.582031 C 21.214844 26.582031 27.066406 20.730469 27.066406 13.515625 C 27.066406 6.300781 21.214844 0.453125 14 0.453125 Z M 14 0.453125 " clip-rule="nonzero"/></clipPath><clipPath id="1af9118f61"><rect x="0" width="28" y="0" height="27"/></clipPath><clipPath id="8bb75c3194"><path d="M 13 20 L 17 20 L 17 24.242188 L 13 24.242188 Z M 13 20 " clip-rule="nonzero"/></clipPath><clipPath id="b80a016c4f"><path d="M 9.777344 6.097656 L 19.9375 6.097656 L 19.9375 7 L 9.777344 7 Z M 9.777344 6.097656 " clip-rule="nonzero"/></clipPath><clipPath id="7d9f1361e3"><path d="M 9.777344 7 L 19.9375 7 L 19.9375 9 L 9.777344 9 Z M 9.777344 7 " clip-rule="nonzero"/></clipPath><clipPath id="ef622552b8"><path d="M 10 9 L 19.9375 9 L 19.9375 12 L 10 12 Z M 10 9 " clip-rule="nonzero"/></clipPath></defs><g clip-path="url(#3a477b9c1f)"><g clip-path="url(#d5ac069e1f)"><g transform="matrix(1, 0, 0, 1, 1, 1)"><g clip-path="url(#1af9118f61)"><g clip-path="url(#77f725821b)"><g clip-path="url(#cf4c0cabbb)"><path fill="#e24a4a" d="M 0.933594 0.453125 L 27.066406 0.453125 L 27.066406 26.582031 L 0.933594 26.582031 Z M 0.933594 0.453125 " fill-opacity="1" fill-rule="nonzero"/></g></g></g></g></g></g><path fill="#ffffff" d="M 17.625 19.566406 C 17.566406 20.03125 17.363281 20.261719 16.792969 20.75 C 16.710938 20.820312 16.589844 20.828125 16.492188 20.765625 C 16.402344 20.707031 16.355469 20.59375 16.390625 20.484375 C 16.863281 18.921875 16.34375 17.753906 15.25 16.542969 C 15.300781 16.820312 15.296875 17.050781 15.234375 17.257812 C 15.117188 17.695312 14.796875 18.007812 14.316406 18.484375 C 14.242188 18.558594 14.167969 18.628906 14.089844 18.710938 C 13.503906 19.414062 13.21875 19.796875 13.125 20.699219 C 13.113281 20.804688 13.039062 20.894531 12.933594 20.917969 C 12.914062 20.917969 12.894531 20.921875 12.875 20.921875 C 12.792969 20.921875 12.707031 20.878906 12.660156 20.804688 C 12.503906 20.554688 12.367188 20.296875 12.234375 20.046875 C 12.070312 20.433594 11.988281 20.847656 11.988281 21.269531 C 11.988281 22.324219 12.511719 23.257812 13.320312 23.816406 C 13.179688 23.082031 13.117188 22.484375 13.503906 21.5625 C 13.542969 21.476562 13.625 21.414062 13.71875 21.410156 C 13.816406 21.402344 13.90625 21.453125 13.953125 21.535156 C 14.011719 21.636719 14.058594 21.730469 14.109375 21.824219 C 14.097656 20.949219 14.1875 20.273438 15.296875 19.464844 C 15.378906 19.40625 15.484375 19.398438 15.570312 19.449219 C 15.660156 19.5 15.703125 19.597656 15.691406 19.695312 C 15.597656 20.5 15.8125 20.789062 16.195312 21.3125 C 16.320312 21.484375 16.464844 21.679688 16.617188 21.914062 C 16.621094 21.921875 16.628906 21.933594 16.632812 21.941406 C 16.882812 22.457031 16.886719 23.238281 16.757812 23.898438 C 17.632812 23.347656 18.207031 22.375 18.207031 21.269531 C 18.207031 20.742188 18.035156 20.210938 17.6875 19.652344 Z M 17.625 19.566406 " fill-opacity="1" fill-rule="nonzero"/><g clip-path="url(#8bb75c3194)"><path fill="#ffffff" d="M 15.792969 21.609375 C 15.464844 21.167969 15.210938 20.824219 15.171875 20.214844 C 14.578125 20.792969 14.59375 21.296875 14.617188 22.109375 C 14.621094 22.296875 14.625 22.492188 14.625 22.710938 C 14.625 22.8125 14.5625 22.90625 14.464844 22.941406 C 14.363281 22.976562 14.253906 22.949219 14.183594 22.871094 C 14.019531 22.679688 13.898438 22.476562 13.789062 22.28125 C 13.640625 22.878906 13.730469 23.332031 13.863281 23.988281 C 13.875 24.039062 13.882812 24.085938 13.894531 24.132812 C 14.265625 24.289062 14.671875 24.378906 15.097656 24.378906 C 15.476562 24.378906 15.839844 24.308594 16.171875 24.1875 C 16.367188 23.5625 16.421875 22.679688 16.1875 22.167969 C 16.042969 21.953125 15.910156 21.769531 15.792969 21.609375 Z M 15.792969 21.609375 " fill-opacity="1" fill-rule="nonzero"/></g><g clip-path="url(#b80a016c4f)"><path fill="#ffffff" d="M 20.109375 6.097656 L 9.882812 6.097656 C 9.828125 6.097656 9.78125 6.140625 9.78125 6.195312 L 9.78125 6.679688 L 20.214844 6.679688 L 20.214844 6.195312 C 20.210938 6.140625 20.167969 6.097656 20.109375 6.097656 Z M 20.109375 6.097656 " fill-opacity="1" fill-rule="nonzero"/></g><g clip-path="url(#7d9f1361e3)"><path fill="#ffffff" d="M 9.78125 8.757812 C 9.78125 8.8125 9.828125 8.859375 9.882812 8.859375 L 20.113281 8.859375 C 20.167969 8.859375 20.214844 8.8125 20.214844 8.757812 L 20.214844 7.179688 L 9.78125 7.179688 Z M 9.78125 8.757812 " fill-opacity="1" fill-rule="nonzero"/></g><g clip-path="url(#ef622552b8)"><path fill="#ffffff" d="M 12.539062 11.476562 L 17.449219 11.476562 L 19.207031 9.355469 L 10.78125 9.355469 Z M 16.738281 10.734375 L 17.335938 9.703125 C 17.402344 9.582031 17.554688 9.542969 17.675781 9.613281 C 17.800781 9.679688 17.835938 9.832031 17.769531 9.953125 L 17.167969 10.988281 C 17.121094 11.066406 17.039062 11.113281 16.949219 11.113281 C 16.910156 11.113281 16.867188 11.101562 16.824219 11.078125 C 16.707031 11.011719 16.664062 10.855469 16.738281 10.734375 Z M 15.714844 10.839844 L 15.996094 9.804688 C 16.027344 9.671875 16.164062 9.59375 16.300781 9.628906 C 16.433594 9.660156 16.511719 9.796875 16.476562 9.9375 L 16.199219 10.96875 C 16.167969 11.078125 16.070312 11.15625 15.960938 11.15625 C 15.9375 11.15625 15.917969 11.152344 15.894531 11.148438 C 15.761719 11.109375 15.683594 10.972656 15.714844 10.839844 Z M 14.730469 9.847656 C 14.730469 9.710938 14.839844 9.597656 14.980469 9.597656 C 15.117188 9.597656 15.234375 9.707031 15.234375 9.847656 L 15.234375 10.878906 C 15.234375 11.015625 15.121094 11.132812 14.980469 11.132812 C 14.84375 11.132812 14.730469 11.019531 14.730469 10.878906 Z M 13.753906 9.609375 C 13.886719 9.574219 14.023438 9.648438 14.0625 9.785156 L 14.339844 10.816406 C 14.375 10.949219 14.300781 11.085938 14.164062 11.121094 C 14.140625 11.128906 14.121094 11.128906 14.097656 11.128906 C 13.988281 11.128906 13.882812 11.054688 13.859375 10.941406 L 13.578125 9.910156 C 13.542969 9.78125 13.621094 9.640625 13.753906 9.609375 Z M 12.378906 9.589844 C 12.496094 9.519531 12.652344 9.5625 12.722656 9.679688 L 13.320312 10.710938 C 13.390625 10.835938 13.347656 10.988281 13.230469 11.054688 C 13.191406 11.078125 13.144531 11.089844 13.101562 11.089844 C 13.015625 11.089844 12.933594 11.042969 12.886719 10.964844 L 12.289062 9.933594 C 12.21875 9.8125 12.261719 9.660156 12.378906 9.589844 Z M 12.378906 9.589844 " fill-opacity="1" fill-rule="nonzero"/></g><path fill="#ffffff" d="M 12.984375 14.644531 C 12.859375 14.699219 12.800781 14.84375 12.855469 14.972656 C 12.898438 15.070312 12.988281 15.125 13.085938 15.125 C 13.117188 15.125 13.152344 15.117188 13.183594 15.101562 C 13.695312 14.875 13.964844 14.640625 14.03125 14.363281 C 14.117188 14.035156 13.902344 13.757812 13.730469 13.539062 C 13.605469 13.378906 13.480469 13.214844 13.503906 13.09375 C 13.527344 12.984375 13.671875 12.839844 13.910156 12.699219 C 14.027344 12.632812 14.070312 12.476562 14 12.359375 C 13.929688 12.238281 13.773438 12.199219 13.65625 12.269531 C 13.269531 12.496094 13.0625 12.734375 13.007812 13 C 12.945312 13.34375 13.160156 13.625 13.332031 13.851562 C 13.441406 13.992188 13.566406 14.15625 13.546875 14.242188 C 13.542969 14.289062 13.457031 14.433594 12.984375 14.644531 Z M 12.984375 14.644531 " fill-opacity="1" fill-rule="nonzero"/><path fill="#ffffff" d="M 14.5 14.644531 C 14.375 14.699219 14.320312 14.84375 14.371094 14.972656 C 14.414062 15.070312 14.503906 15.125 14.601562 15.125 C 14.632812 15.125 14.667969 15.117188 14.699219 15.101562 C 15.210938 14.875 15.480469 14.640625 15.546875 14.363281 C 15.632812 14.035156 15.417969 13.757812 15.246094 13.539062 C 15.121094 13.378906 14.996094 13.214844 15.019531 13.09375 C 15.042969 12.984375 15.1875 12.839844 15.425781 12.699219 C 15.542969 12.632812 15.585938 12.476562 15.515625 12.359375 C 15.445312 12.238281 15.289062 12.199219 15.171875 12.269531 C 14.785156 12.496094 14.578125 12.734375 14.523438 13 C 14.460938 13.34375 14.675781 13.625 14.851562 13.851562 C 14.960938 13.992188 15.085938 14.15625 15.066406 14.242188 C 15.058594 14.289062 14.972656 14.433594 14.5 14.644531 Z M 14.5 14.644531 " fill-opacity="1" fill-rule="nonzero"/><path fill="#ffffff" d="M 16.015625 14.644531 C 15.890625 14.699219 15.835938 14.84375 15.886719 14.972656 C 15.929688 15.070312 16.019531 15.125 16.117188 15.125 C 16.148438 15.125 16.183594 15.117188 16.214844 15.101562 C 16.726562 14.875 16.996094 14.640625 17.066406 14.363281 C 17.152344 14.035156 16.9375 13.757812 16.765625 13.539062 C 16.640625 13.378906 16.515625 13.214844 16.539062 13.09375 C 16.5625 12.984375 16.707031 12.839844 16.945312 12.699219 C 17.0625 12.632812 17.105469 12.476562 17.035156 12.359375 C 16.964844 12.238281 16.808594 12.199219 16.691406 12.269531 C 16.304688 12.496094 16.097656 12.734375 16.042969 13 C 15.980469 13.34375 16.195312 13.625 16.367188 13.851562 C 16.476562 13.992188 16.605469 14.15625 16.582031 14.242188 C 16.570312 14.289062 16.488281 14.433594 16.015625 14.644531 Z M 16.015625 14.644531 " fill-opacity="1" fill-rule="nonzero"/></svg>