<svg xmlns="http://www.w3.org/2000/svg" xmlns:xlink="http://www.w3.org/1999/xlink" width="40" zoomAndPan="magnify" viewBox="0 0 30 30.000001" height="40" preserveAspectRatio="xMidYMid meet" version="1.0"><defs><clipPath id="02269477b5"><path d="M 1.933594 1.453125 L 28.066406 1.453125 L 28.066406 27.582031 L 1.933594 27.582031 Z M 1.933594 1.453125 " clip-rule="nonzero"/></clipPath><clipPath id="5732a6571b"><path d="M 15 1.453125 C 7.785156 1.453125 1.933594 7.300781 1.933594 14.515625 C 1.933594 21.730469 7.785156 27.582031 15 27.582031 C 22.214844 27.582031 28.066406 21.730469 28.066406 14.515625 C 28.066406 7.300781 22.214844 1.453125 15 1.453125 Z M 15 1.453125 " clip-rule="nonzero"/></clipPath><clipPath id="4e37cfe40e"><path d="M 0.933594 0.453125 L 27.066406 0.453125 L 27.066406 26.582031 L 0.933594 26.582031 Z M 0.933594 0.453125 " clip-rule="nonzero"/></clipPath><clipPath id="b6bbd1cb38"><path d="M 14 0.453125 C 6.785156 0.453125 0.933594 6.300781 0.933594 13.515625 C 0.933594 20.730469 6.785156 26.582031 14 26.582031 C 21.214844 26.582031 27.066406 20.730469 27.066406 13.515625 C 27.066406 6.300781 21.214844 0.453125 14 0.453125 Z M 14 0.453125 " clip-rule="nonzero"/></clipPath><clipPath id="8fe3145473"><rect x="0" width="28" y="0" height="27"/></clipPath><clipPath id="2ab6e653ba"><path d="M 8.375 9.441406 L 21.441406 9.441406 L 21.441406 19.601562 L 8.375 19.601562 Z M 8.375 9.441406 " clip-rule="nonzero"/></clipPath></defs><g clip-path="url(#02269477b5)"><g clip-path="url(#5732a6571b)"><g transform="matrix(1, 0, 0, 1, 1, 1)"><g clip-path="url(#8fe3145473)"><g clip-path="url(#4e37cfe40e)"><g clip-path="url(#b6bbd1cb38)"><path fill="#e24a4a" d="M 0.933594 0.453125 L 27.066406 0.453125 L 27.066406 26.582031 L 0.933594 26.582031 Z M 0.933594 0.453125 " fill-opacity="1" fill-rule="nonzero"/></g></g></g></g></g></g><g clip-path="url(#2ab6e653ba)"><path fill="#ffffff" d="M 19.953125 11.070312 L 17.1875 11.070312 L 17.1875 10.453125 C 17.1875 9.894531 16.734375 9.441406 16.175781 9.441406 L 13.820312 9.441406 C 13.261719 9.441406 12.808594 9.894531 12.808594 10.453125 L 12.808594 11.070312 L 10.042969 11.070312 C 9.597656 11.070312 9.179688 11.242188 8.863281 11.558594 C 8.550781 11.871094 8.375 12.292969 8.375 12.738281 L 8.375 17.921875 C 8.375 18.367188 8.550781 18.785156 8.863281 19.101562 C 9.179688 19.417969 9.597656 19.589844 10.042969 19.589844 L 19.953125 19.589844 C 20.398438 19.589844 20.816406 19.417969 21.132812 19.101562 C 21.445312 18.785156 21.621094 18.367188 21.621094 17.921875 L 21.621094 12.738281 C 21.621094 12.292969 21.445312 11.871094 21.132812 11.558594 C 20.816406 11.242188 20.398438 11.070312 19.953125 11.070312 Z M 13.339844 10.453125 C 13.339844 10.1875 13.554688 9.96875 13.820312 9.96875 L 16.175781 9.96875 C 16.441406 9.96875 16.65625 10.1875 16.65625 10.453125 L 16.65625 11.070312 L 13.339844 11.070312 Z M 17.121094 15.566406 C 17.121094 15.765625 16.957031 15.929688 16.753906 15.929688 L 15.601562 15.929688 L 15.601562 17.085938 C 15.601562 17.289062 15.4375 17.453125 15.234375 17.453125 L 14.761719 17.453125 C 14.558594 17.453125 14.398438 17.289062 14.398438 17.085938 L 14.398438 15.929688 L 13.242188 15.929688 C 13.039062 15.929688 12.875 15.765625 12.875 15.566406 L 12.875 15.09375 C 12.875 14.890625 13.039062 14.726562 13.242188 14.726562 L 14.398438 14.726562 L 14.398438 13.570312 C 14.398438 13.371094 14.558594 13.207031 14.761719 13.207031 L 15.234375 13.207031 C 15.4375 13.207031 15.601562 13.371094 15.601562 13.570312 L 15.601562 14.726562 L 16.753906 14.726562 C 16.957031 14.726562 17.121094 14.890625 17.121094 15.09375 Z M 17.121094 15.566406 " fill-opacity="1" fill-rule="nonzero"/></g></svg>