<svg xmlns="http://www.w3.org/2000/svg" xmlns:xlink="http://www.w3.org/1999/xlink" width="40" zoomAndPan="magnify" viewBox="0 0 30 30.000001" height="40" preserveAspectRatio="xMidYMid meet" version="1.0"><defs><clipPath id="0a2df6d785"><path d="M 1.933594 1.453125 L 28.066406 1.453125 L 28.066406 27.582031 L 1.933594 27.582031 Z M 1.933594 1.453125 " clip-rule="nonzero"/></clipPath><clipPath id="6a46f6effd"><path d="M 15 1.453125 C 7.785156 1.453125 1.933594 7.300781 1.933594 14.515625 C 1.933594 21.730469 7.785156 27.582031 15 27.582031 C 22.214844 27.582031 28.066406 21.730469 28.066406 14.515625 C 28.066406 7.300781 22.214844 1.453125 15 1.453125 Z M 15 1.453125 " clip-rule="nonzero"/></clipPath><clipPath id="25faec61e8"><path d="M 0.933594 0.453125 L 27.066406 0.453125 L 27.066406 26.582031 L 0.933594 26.582031 Z M 0.933594 0.453125 " clip-rule="nonzero"/></clipPath><clipPath id="660c147d2d"><path d="M 14 0.453125 C 6.785156 0.453125 0.933594 6.300781 0.933594 13.515625 C 0.933594 20.730469 6.785156 26.582031 14 26.582031 C 21.214844 26.582031 27.066406 20.730469 27.066406 13.515625 C 27.066406 6.300781 21.214844 0.453125 14 0.453125 Z M 14 0.453125 " clip-rule="nonzero"/></clipPath><clipPath id="68a98a9e5e"><rect x="0" width="28" y="0" height="27"/></clipPath><clipPath id="3a33d502ff"><path d="M 6.625 5.445312 L 21.867188 5.445312 L 21.867188 23.589844 L 6.625 23.589844 Z M 6.625 5.445312 " clip-rule="nonzero"/></clipPath><clipPath id="4ec5858412"><path d="M 7 6 L 21.867188 6 L 21.867188 23 L 7 23 Z M 7 6 " clip-rule="nonzero"/></clipPath></defs><g clip-path="url(#0a2df6d785)"><g clip-path="url(#6a46f6effd)"><g transform="matrix(1, 0, 0, 1, 1, 1)"><g clip-path="url(#68a98a9e5e)"><g clip-path="url(#25faec61e8)"><g clip-path="url(#660c147d2d)"><path fill="#e24a4a" d="M 0.933594 0.453125 L 27.066406 0.453125 L 27.066406 26.582031 L 0.933594 26.582031 Z M 0.933594 0.453125 " fill-opacity="1" fill-rule="nonzero"/></g></g></g></g></g></g><g clip-path="url(#3a33d502ff)"><path fill="#e24a4a" d="M -7.046875 -0.601562 L 22.078125 -0.601562 C 29.71875 -0.601562 35.96875 5.652344 35.96875 13.292969 L 35.96875 42.414062 C 35.96875 50.058594 29.71875 56.308594 22.078125 56.308594 L -7.046875 56.308594 C -14.6875 56.308594 -20.941406 50.058594 -20.941406 42.414062 L -20.941406 13.292969 C -20.941406 5.652344 -14.6875 -0.601562 -7.046875 -0.601562 " fill-opacity="1" fill-rule="evenodd"/></g><g clip-path="url(#4ec5858412)"><path fill="#fffffe" d="M 16.011719 22.851562 C 15.667969 22.851562 15.324219 22.761719 15.023438 22.585938 C 14.566406 22.320312 14.238281 21.894531 14.101562 21.382812 C 13.96875 20.878906 14.035156 20.355469 14.289062 19.902344 C 14.222656 19.871094 14.160156 19.835938 14.09375 19.800781 C 13.28125 19.332031 12.855469 18.40625 12.988281 17.507812 C 12.785156 17.449219 12.585938 17.363281 12.394531 17.253906 C 11.484375 16.726562 10.964844 15.738281 11.019531 14.71875 C 10.484375 14.695312 9.960938 14.542969 9.496094 14.273438 C 7.902344 13.355469 7.355469 11.3125 8.277344 9.71875 C 8.871094 8.6875 9.976562 8.050781 11.167969 8.050781 C 11.445312 8.050781 11.71875 8.085938 11.984375 8.152344 C 12.019531 8.078125 12.058594 8.007812 12.097656 7.9375 C 12.691406 6.910156 13.800781 6.269531 14.988281 6.269531 C 15.570312 6.269531 16.148438 6.425781 16.65625 6.71875 C 17.941406 7.460938 18.5625 8.941406 18.242188 10.34375 C 18.671875 10.398438 19.085938 10.542969 19.464844 10.761719 C 21.058594 11.679688 21.605469 13.722656 20.6875 15.316406 C 20.367188 15.871094 19.902344 16.3125 19.34375 16.605469 C 19.828125 17.304688 19.886719 18.242188 19.441406 19.015625 C 19.097656 19.609375 18.507812 20.007812 17.84375 20.117188 C 18.070312 20.667969 18.046875 21.3125 17.726562 21.863281 C 17.375 22.472656 16.71875 22.851562 16.011719 22.851562 " fill-opacity="1" fill-rule="evenodd"/></g></svg>