<svg xmlns="http://www.w3.org/2000/svg" xmlns:xlink="http://www.w3.org/1999/xlink" width="40" zoomAndPan="magnify" viewBox="0 0 30 30.000001" height="40" preserveAspectRatio="xMidYMid meet" version="1.0"><defs><clipPath id="9a56e41cfb"><path d="M 1.933594 1.453125 L 28.066406 1.453125 L 28.066406 27.582031 L 1.933594 27.582031 Z M 1.933594 1.453125 " clip-rule="nonzero"/></clipPath><clipPath id="541e4eaad4"><path d="M 15 1.453125 C 7.785156 1.453125 1.933594 7.300781 1.933594 14.515625 C 1.933594 21.730469 7.785156 27.582031 15 27.582031 C 22.214844 27.582031 28.066406 21.730469 28.066406 14.515625 C 28.066406 7.300781 22.214844 1.453125 15 1.453125 Z M 15 1.453125 " clip-rule="nonzero"/></clipPath><clipPath id="74a5f5ec9d"><path d="M 0.933594 0.453125 L 27.066406 0.453125 L 27.066406 26.582031 L 0.933594 26.582031 Z M 0.933594 0.453125 " clip-rule="nonzero"/></clipPath><clipPath id="68893df42c"><path d="M 14 0.453125 C 6.785156 0.453125 0.933594 6.300781 0.933594 13.515625 C 0.933594 20.730469 6.785156 26.582031 14 26.582031 C 21.214844 26.582031 27.066406 20.730469 27.066406 13.515625 C 27.066406 6.300781 21.214844 0.453125 14 0.453125 Z M 14 0.453125 " clip-rule="nonzero"/></clipPath><clipPath id="f77ba0fb29"><rect x="0" width="28" y="0" height="27"/></clipPath><clipPath id="a66ce60821"><path d="M 10.644531 8 L 12 8 L 12 11 L 10.644531 11 Z M 10.644531 8 " clip-rule="nonzero"/></clipPath><clipPath id="fc75c94b05"><path d="M 10.644531 12 L 12 12 L 12 15 L 10.644531 15 Z M 10.644531 12 " clip-rule="nonzero"/></clipPath><clipPath id="327a27522f"><path d="M 10.644531 17 L 12 17 L 12 19 L 10.644531 19 Z M 10.644531 17 " clip-rule="nonzero"/></clipPath><clipPath id="57bde9d248"><path d="M 18 8 L 19.355469 8 L 19.355469 11 L 18 11 Z M 18 8 " clip-rule="nonzero"/></clipPath><clipPath id="fa0e4cf800"><path d="M 18 12 L 19.355469 12 L 19.355469 15 L 18 15 Z M 18 12 " clip-rule="nonzero"/></clipPath><clipPath id="6bcd6ee2bb"><path d="M 18 17 L 19.355469 17 L 19.355469 19 L 18 19 Z M 18 17 " clip-rule="nonzero"/></clipPath><clipPath id="13c02b4b81"><path d="M 12 6.8125 L 18 6.8125 L 18 22 L 12 22 Z M 12 6.8125 " clip-rule="nonzero"/></clipPath><clipPath id="148925b43f"><path d="M 12 21 L 18 21 L 18 22.054688 L 12 22.054688 Z M 12 21 " clip-rule="nonzero"/></clipPath></defs><g clip-path="url(#9a56e41cfb)"><g clip-path="url(#541e4eaad4)"><g transform="matrix(1, 0, 0, 1, 1, 1)"><g clip-path="url(#f77ba0fb29)"><g clip-path="url(#74a5f5ec9d)"><g clip-path="url(#68893df42c)"><path fill="#e24a4a" d="M 0.933594 0.453125 L 27.066406 0.453125 L 27.066406 26.582031 L 0.933594 26.582031 Z M 0.933594 0.453125 " fill-opacity="1" fill-rule="nonzero"/></g></g></g></g></g></g><g clip-path="url(#a66ce60821)"><path fill="#ffffff" d="M 10.644531 9.046875 C 10.644531 9.046875 11.449219 9.28125 11.84375 10.035156 L 11.84375 8.398438 L 10.644531 8.398438 Z M 10.644531 9.046875 " fill-opacity="1" fill-rule="nonzero"/></g><g clip-path="url(#fc75c94b05)"><path fill="#ffffff" d="M 10.644531 13.476562 C 10.644531 13.476562 11.449219 13.710938 11.84375 14.46875 L 11.84375 12.828125 L 10.644531 12.828125 Z M 10.644531 13.476562 " fill-opacity="1" fill-rule="nonzero"/></g><g clip-path="url(#327a27522f)"><path fill="#ffffff" d="M 10.644531 17.90625 C 10.644531 17.90625 11.449219 18.140625 11.84375 18.898438 L 11.84375 17.257812 L 10.644531 17.257812 Z M 10.644531 17.90625 " fill-opacity="1" fill-rule="nonzero"/></g><g clip-path="url(#57bde9d248)"><path fill="#ffffff" d="M 18.152344 8.398438 L 18.152344 10.035156 C 18.550781 9.28125 19.355469 9.046875 19.355469 9.046875 L 19.355469 8.398438 Z M 18.152344 8.398438 " fill-opacity="1" fill-rule="nonzero"/></g><g clip-path="url(#fa0e4cf800)"><path fill="#ffffff" d="M 18.152344 14.46875 C 18.550781 13.710938 19.355469 13.476562 19.355469 13.476562 L 19.355469 12.828125 L 18.152344 12.828125 Z M 18.152344 14.46875 " fill-opacity="1" fill-rule="nonzero"/></g><g clip-path="url(#6bcd6ee2bb)"><path fill="#ffffff" d="M 18.152344 18.898438 C 18.550781 18.140625 19.355469 17.90625 19.355469 17.90625 L 19.355469 17.257812 L 18.152344 17.257812 Z M 18.152344 18.898438 " fill-opacity="1" fill-rule="nonzero"/></g><g clip-path="url(#13c02b4b81)"><path fill="#ffffff" d="M 17.300781 6.820312 L 12.695312 6.820312 C 12.316406 6.820312 12.007812 7.128906 12.007812 7.511719 L 12.007812 20.699219 C 12.007812 21.078125 12.316406 21.390625 12.695312 21.390625 L 17.304688 21.390625 C 17.683594 21.390625 17.996094 21.082031 17.996094 20.699219 L 17.996094 7.511719 C 17.992188 7.128906 17.683594 6.820312 17.300781 6.820312 Z M 14.996094 19.621094 C 14.128906 19.621094 13.421875 18.914062 13.421875 18.046875 C 13.421875 17.175781 14.128906 16.46875 14.996094 16.46875 C 15.867188 16.46875 16.574219 17.175781 16.574219 18.046875 C 16.574219 18.914062 15.867188 19.621094 14.996094 19.621094 Z M 14.996094 15.679688 C 14.128906 15.679688 13.421875 14.976562 13.421875 14.105469 C 13.421875 13.234375 14.128906 12.527344 14.996094 12.527344 C 15.867188 12.527344 16.574219 13.234375 16.574219 14.105469 C 16.574219 14.976562 15.867188 15.679688 14.996094 15.679688 Z M 14.996094 11.746094 C 14.128906 11.746094 13.421875 11.039062 13.421875 10.167969 C 13.421875 9.296875 14.128906 8.59375 14.996094 8.59375 C 15.867188 8.59375 16.574219 9.296875 16.574219 10.167969 C 16.574219 11.039062 15.867188 11.746094 14.996094 11.746094 Z M 14.996094 11.746094 " fill-opacity="1" fill-rule="nonzero"/></g><g clip-path="url(#148925b43f)"><path fill="#ffffff" d="M 12.996094 21.609375 L 17.003906 21.609375 L 17.003906 22.207031 L 12.996094 22.207031 Z M 12.996094 21.609375 " fill-opacity="1" fill-rule="nonzero"/></g></svg>